<?xml version="1.0" encoding="utf-8"?>
<!-- Generator: Adobe Illustrator 25.4.1, SVG Export Plug-In . SVG Version: 6.00 Build 0)  -->
<svg version="1.1" id="Layer_1" xmlns="http://www.w3.org/2000/svg" xmlns:xlink="http://www.w3.org/1999/xlink" x="0px" y="0px"
	 viewBox="0 0 500 104" style="enable-background:new 0 0 500 104;" xml:space="preserve">
<style type="text/css">
	.st0{fill:#124536;}
</style>
<g>
	<path class="st0" d="M1,31.8c0-13.5,8.9-31,32.7-31c19.7,0,32,11.5,32,29.6S53,62.9,32.9,62.9C10.2,62.9,1,45.8,1,31.8z M54.6,33.3
		c0-17.7-10.2-28.7-23.2-28.7c-9.1,0-19.5,5.1-19.5,24.8c0,16.5,9.1,29.5,24.3,29.5C41.8,58.9,54.6,56.2,54.6,33.3z"/>
	<path class="st0" d="M84.4,45c-0.3,0-0.5,0.2-0.6,0.6l-3.5,8.6c-0.6,1.7-1,3.3-1,4.1c0,2,2.5,2.1,4,2.1c1,0,1.2,0.3,1.2,0.6
		c0,0.6-0.6,0.7-1.3,0.7c-2.5,0-5.3-0.2-7.8-0.2c-0.8,0-4.8,0.2-8.4,0.2c-0.9,0-1.3-0.2-1.3-0.7c0-0.4,0.4-0.7,0.9-0.7
		c5-0.5,6.1-1.4,7.9-6l16.8-39.7c1.4-3.7,2.2-5.2,3.1-5.2c0.6,0,1,0.7,1.8,2.5c1.3,3.9,13.1,30.9,17.5,41c2.5,5.9,4.5,7,6.2,7.3
		c0.7,0.2,1.9,0.2,2.6,0.2c0.9,0,1.2,0.3,1.2,0.7c0,0.5-0.3,0.7-1.3,0.7c-3.3,0-11.6,0.2-16.6-0.2c-0.7-0.1-1.2-0.2-1.2-0.6
		c0-0.3,0.3-0.5,0.7-0.6c0.7-0.2,1.3-0.5,0.8-1.4l-5.4-13.4c-0.1-0.3-0.3-0.5-0.6-0.5H84.4z M98.6,41.1c0.4,0,0.4-0.2,0.3-0.4
		l-6.2-16.2c-0.2-0.6-0.5-0.8-0.8,0l-6.3,16.2c-0.1,0.2,0,0.4,0.3,0.4H98.6z"/>
	<path class="st0" d="M141.7,34.5c3.3-2.9,11.1-11.2,14.6-15.2c3-3.4,4.1-4.9,4.1-5.8c0-0.5-0.1-0.9-1.6-1.3
		c-0.7-0.1-1.1-0.4-1.1-0.8c0-0.3,0.3-0.6,1-0.6c2.6,0,3.9,0.2,7.1,0.2c3.2,0,7.8-0.2,8.8-0.2c1.1,0,1.3,0.2,1.3,0.6
		c0,0.2-0.2,0.7-1.1,0.8c-1.4,0.2-2.4,0.4-3.5,0.7c-2.6,0.8-4.4,1.7-8.1,5.2c-3.2,3.2-12,12.3-13.8,14.2
		c3.5,4.7,15.4,17.3,18.8,20.5c5.8,5.3,7.5,6.3,9.7,7c1.3,0.4,1.9,0.4,2.8,0.5c1,0.1,1.3,0.3,1.3,0.7c0,0.5-0.3,0.7-1.3,0.7h-6.3
		c-8.1,0-10.7-0.8-14.6-4.7c-5.1-5.1-12.8-14-18.5-21v6.1c0,6,0,11.5,0.2,14.3c0.2,1.9,0.8,3.2,2.7,3.6c1,0.2,2.5,0.2,3.3,0.2
		c0.6,0,0.9,0.4,0.9,0.7c0,0.5-0.5,0.7-1.3,0.7c-4,0-9-0.2-10.5-0.2c-1.3,0-6.4,0.2-9.1,0.2c-1,0-1.4-0.2-1.4-0.7
		c0-0.3,0.3-0.7,1.2-0.7c1-0.1,1.5-0.1,2.2-0.2c1.8-0.3,2.1-1.7,2.3-3.6c0.4-2.8,0.4-8,0.4-14.3V30.3c0-10.3,0-11.9-0.2-14.1
		c-0.2-2.1-0.7-3.2-2.9-3.6c-1-0.2-1.7-0.2-2.7-0.3c-0.8,0-1.2-0.3-1.2-0.8c0-0.5,0.5-0.6,1.6-0.6c3.6,0,8.4,0.2,9.9,0.2
		c1.4,0,6.7-0.2,9-0.2c1,0,1.4,0.2,1.4,0.6c0,0.5-0.5,0.8-1.1,0.8c-0.6,0.1-1,0.1-1.9,0.2c-2,0.3-2.5,1.6-2.7,3.9
		c-0.1,2.1-0.1,3.6-0.1,13.9V34.5z"/>
	<path class="st0" d="M254.3,27.1c0.2,0,0.5-0.2,0.5-0.6v-1.7c0-12,0-14.3-0.2-16.8c-0.2-2.7-0.8-4-3.4-4.5c-0.6-0.2-2-0.2-3.1-0.2
		c-0.9,0-1.3-0.2-1.3-0.7c0-0.6,0.6-0.7,1.7-0.7c4.3,0,9.3,0.2,11.4,0.2c1.9,0,6.9-0.2,10-0.2c1.1,0,1.7,0.2,1.7,0.7
		c0,0.6-0.5,0.7-1.4,0.7c-0.6,0-1.3,0.1-2.3,0.2c-2.1,0.4-2.8,1.7-2.9,4.5c-0.2,2.5-0.2,4.8-0.2,16.8v13.9c0,7.3,0,13.5,0.4,16.9
		c0.2,2.2,0.7,4,3.1,4.3c1.1,0.2,2.9,0.3,4,0.3c0.9,0,1.3,0.2,1.3,0.6c0,0.6-0.6,0.8-1.6,0.8c-5.1,0-10.1-0.2-12.4-0.2
		c-1.8,0-6.8,0.2-9.9,0.2c-1.1,0-1.7-0.2-1.7-0.8c0-0.4,0.3-0.6,1.3-0.6c1.2,0,2.1-0.2,2.8-0.3c1.6-0.3,2-2.1,2.3-4.4
		c0.4-3.3,0.4-9.6,0.4-16.9v-7c0-0.3-0.2-0.5-0.5-0.5H224c-0.2,0-0.5,0.1-0.5,0.5v7c0,7.3,0,13.5,0.4,16.9c0.2,2.2,0.7,4,3.1,4.3
		c1.1,0.2,2.9,0.3,4,0.3c0.9,0,1.3,0.2,1.3,0.6c0,0.6-0.6,0.8-1.6,0.8c-5.1,0-10.1-0.2-12.4-0.2c-1.8,0-6.8,0.2-10,0.2
		c-1,0-1.6-0.2-1.6-0.8c0-0.4,0.3-0.6,1.3-0.6c1.2,0,2.1-0.2,2.9-0.3c1.6-0.3,2-2.1,2.3-4.4c0.4-3.3,0.4-9.6,0.4-16.9V24.9
		c0-12,0-14.3-0.2-16.8c-0.2-2.7-0.8-4-3.4-4.5c-0.6-0.2-2-0.2-3.1-0.2c-0.9,0-1.3-0.2-1.3-0.7c0-0.6,0.6-0.7,1.7-0.7
		c4.3,0,9.3,0.2,11.4,0.2c1.9,0,6.9-0.2,10-0.2c1.1,0,1.7,0.2,1.7,0.7c0,0.6-0.7,0.7-1.4,0.7c-0.6,0-1.7,0.1-2.3,0.2
		c-2.1,0.3-2.8,1.8-2.9,4.6c-0.2,2.5-0.2,4.8-0.2,16.8v1.7c0,0.4,0.2,0.6,0.5,0.6H254.3z"/>
	<path class="st0" d="M292.6,45c-0.3,0-0.5,0.2-0.6,0.6l-3.5,8.6c-0.6,1.7-1,3.3-1,4.1c0,2,2.5,2.1,4,2.1c1,0,1.2,0.3,1.2,0.6
		c0,0.6-0.6,0.7-1.3,0.7c-2.5,0-5.3-0.2-7.8-0.2c-0.8,0-4.8,0.2-8.4,0.2c-0.9,0-1.3-0.2-1.3-0.7c0-0.4,0.4-0.7,1-0.7
		c5-0.5,6.1-1.4,7.9-6l16.8-39.7c1.4-3.7,2.2-5.2,3.1-5.2c0.6,0,1,0.7,1.8,2.5c1.3,3.9,13.1,30.9,17.5,41c2.5,5.9,4.5,7,6.2,7.3
		c0.7,0.2,1.9,0.2,2.6,0.2c0.9,0,1.2,0.3,1.2,0.7c0,0.5-0.3,0.7-1.3,0.7c-3.3,0-11.6,0.2-16.6-0.2c-0.7-0.1-1.2-0.2-1.2-0.6
		c0-0.3,0.3-0.5,0.7-0.6c0.7-0.2,1.3-0.5,0.8-1.4l-5.4-13.4c-0.1-0.3-0.3-0.5-0.6-0.5H292.6z M306.8,41.1c0.4,0,0.4-0.2,0.3-0.4
		l-6.2-16.2c-0.2-0.6-0.5-0.8-0.8,0l-6.3,16.2c-0.1,0.2,0,0.4,0.3,0.4H306.8z"/>
	<path class="st0" d="M328.1,17.7c-1.7-3.8-2.8-4.5-5.3-5.1c-1-0.2-1.8-0.3-2.4-0.3c-0.6,0-0.9-0.3-0.9-0.7c0-0.6,0.6-0.7,1.7-0.7
		c3.6,0,7.7,0.2,10.2,0.2c1.9,0,5.5-0.2,9.3-0.2c1,0,1.5,0.2,1.5,0.7c0,0.5-0.5,0.7-1.1,0.7c-1,0.1-2.1,0.2-2.7,0.6
		c-0.6,0.3-0.8,0.7-0.8,1.3c0,0.9,0.6,2.7,1.7,5.2c3.6,9.4,8.2,20.7,11.8,29.8c3-7.2,11.7-28,13.6-32.8c0.3-0.8,0.6-1.8,0.6-2.4
		c0-0.6-0.3-1.2-1-1.3c-0.9-0.2-1.9-0.3-2.9-0.4c-0.6,0-1.2-0.2-1.2-0.7c0-0.5,0.5-0.7,1.7-0.7c3.7,0,7,0.2,7.8,0.2
		c1.2,0,4.7-0.2,6.7-0.2c1,0,1.6,0.2,1.6,0.7c0,0.5-0.6,0.7-1.3,0.7c-0.7,0.1-2,0.1-3.2,0.8c-1,0.6-2.1,1.8-4,6.1
		c-2.7,6.2-4.8,9.9-8.6,18.3c-4.4,9.7-7.7,16.9-9.3,20.3c-1.8,4-2.3,4.9-3.2,4.9c-1,0-1.3-0.9-2.7-4L328.1,17.7z"/>
	<path class="st0" d="M386.8,30.3c0-10.3,0-12.1-0.2-14.3c-0.2-2.2-0.7-3.1-2.8-3.6c-0.6-0.2-1.7-0.2-2.7-0.2
		c-0.8,0-1.2-0.2-1.2-0.7c0-0.5,0.5-0.6,1.6-0.6c3.3,0,6.5,0.2,10,0.2c2.1,0,16.6,0,17.9-0.1c1.3-0.2,2.5-0.3,3.2-0.4
		c0.4-0.1,0.8-0.3,1.1-0.3c0.4,0,0.5,0.3,0.5,0.6c0,0.5-0.5,1.4-0.6,4.3c-0.1,1.3-0.2,2.6-0.3,4.7c0,0.4-0.2,1.1-0.8,1.1
		c-0.5,0-0.6-0.4-0.7-1.3c0-0.3,0-1.3-0.4-2.2c-0.5-1.3-1.1-2-4.5-2.4c-1.3-0.2-8.5-0.3-10.1-0.3c-0.3,0-0.5,0.2-0.5,0.7v16.4
		c0,0.5,0.1,0.7,0.5,0.7c1.7,0,9.3,0,11-0.1c2-0.2,3-0.4,3.6-1.1c0.5-0.6,0.8-0.9,1.1-0.9c0.3,0,0.5,0.2,0.5,0.6
		c0,0.5-0.3,2-0.6,5.2c0,1.3-0.2,4.2-0.2,4.8c0,0.6-0.1,1.3-0.7,1.3c-0.5,0-0.7-0.7-0.7-1.1c-0.1-0.6-0.1-1-0.2-1.8
		c-0.4-1.5-1.2-2.5-4-2.8c-1.4-0.2-8.1-0.2-9.8-0.2c-0.4,0-0.5,0.3-0.5,0.7v5.1c0,2.3-0.1,7.8,0,9.9c0.2,4.7,1.2,5.7,8.5,5.7
		c1.8,0,4.8,0,6.5-0.8c1.8-0.9,2.6-2.2,3.2-5.1c0.2-0.7,0.3-1.1,0.9-1.1c0.6,0,0.6,0.6,0.6,1.3c0,1.7-0.6,6.6-1,7.9
		c-0.5,1.7-1.1,1.7-3.7,1.7c-6.9,0-12.8-0.4-19.9-0.4c-2.9,0-5.7,0.2-9,0.2c-1,0-1.4-0.2-1.4-0.7c0-0.3,0.2-0.7,1.2-0.7
		c1-0.1,1.8-0.1,2.5-0.2c1.4-0.3,1.8-1.8,2.1-4.2c0.3-2.8,0.3-7.9,0.3-13.7V30.3z"/>
	<path class="st0" d="M429.6,12.2c0-1.5,0.2-2.5,1-2.5c0.7,0,1.3,0.8,2.5,2c1.3,1.1,10.5,10.7,21.9,21.3c5.1,4.9,14,13.9,15.3,15
		l-0.6-29.3c-0.1-4-0.6-5.4-2.5-6.1c-1-0.3-2.6-0.3-3.6-0.4c-0.9,0-1.2-0.4-1.2-0.8c0-0.6,0.8-0.6,1.7-0.6c3.5,0,7,0.2,8.8,0.2
		c0.9,0,3.7-0.2,7-0.2c0.9,0,1.5,0.2,1.5,0.7c0,0.4-0.3,0.7-1.2,0.7c-0.7,0.1-1.3,0.1-2,0.2c-2.1,0.6-2.7,1.9-2.8,5.7
		c-0.3,10.1-0.5,27.8-0.7,41.9c0,1.8-0.4,2.5-1,2.5c-0.9,0-1.9-0.9-3.4-2.2c-4.4-4-12.9-12.2-19.5-18.5c-7-6.5-14.7-14.7-16.6-16.7
		l0.7,27.5c0.2,5.1,1,6.8,2.4,7.3c1.2,0.4,2.5,0.4,3.7,0.5c0.7,0,1.2,0.2,1.2,0.6c0,0.6-0.6,0.8-1.6,0.8c-4.1,0-6.9-0.2-8.7-0.2
		c-0.9,0-4.5,0.2-7.9,0.2c-0.9,0-1.5-0.1-1.5-0.7c0-0.4,0.4-0.7,1.1-0.7c0.9-0.1,2.1-0.1,3-0.3c2-0.6,2.3-2.3,2.4-8.2
		C429.2,37.6,429.6,21.1,429.6,12.2z"/>
	<path class="st0" d="M483.7,8c0-4.2,3.1-7.2,7.1-7.2c4,0,7.1,3,7.1,7.2c0,4-3.1,7.2-7.1,7.2C486.8,15.2,483.7,12,483.7,8z
		 M496.7,7.9c0-3.6-2.5-6.1-5.9-6.1c-3.4,0-5.9,2.5-5.9,6.1c0,3.6,2.5,6.2,5.9,6.2C494.3,14.1,496.7,11.5,496.7,7.9z M488.3,6.9
		c0-1.1,0-0.9-0.1-1.8c-0.1-0.5-0.2-0.6-0.8-0.6c-0.2,0-0.4-0.1-0.4-0.2c0-0.1,0.1-0.2,0.2-0.2c0.6,0,1.6,0.1,1.8,0.1
		c0.6,0,1-0.1,1.7-0.1c1.2,0,2.9,0.3,2.9,2.1c0,0.7-0.6,1.6-1.4,1.9l1,1.5c0.7,1,1.3,1.5,1.7,1.5c0.2,0,0.3,0.1,0.3,0.2
		c0,0.2-0.3,0.2-0.7,0.2c-1,0-1.7,0-2.7-1.4l-0.9-1.5h-1v0.5c0,0.9,0,1,0.1,1.5c0.1,0.3,0.2,0.6,0.8,0.6c0.2,0,0.3,0.1,0.3,0.2
		c0,0.2-0.2,0.2-0.4,0.2c-0.4,0-1.1-0.1-1.4-0.1c-0.2,0-1.2,0.1-1.7,0.1c-0.1,0-0.4,0-0.4-0.2c0-0.2,0.3-0.2,0.5-0.2
		c0.6,0,0.6-0.2,0.7-0.7c0-0.3,0.1-0.6,0.1-1.8V6.9z M489.8,7.7c0.2,0.1,0.5,0.2,0.9,0.2c0.2,0,0.5-0.1,0.7-0.2
		c0.3-0.2,0.6-0.6,0.6-1.2c0-1-0.5-1.7-1.6-1.7c-0.1,0-0.5,0-0.6,0.2V7.7z"/>
	<path class="st0" d="M103.3,97.2c0-3,0-6.2,0.1-7.9h-0.1c-0.7,2.8-3.2,9.6-5,14.8h-2.2c-1.4-4.3-3.9-11.9-4.7-14.8h-0.1
		c0.1,1.9,0.2,5.5,0.2,8.3v6.5h-2.3V87.5h3.7c1.8,5,3.9,11.4,4.4,13.5h0c0.4-1.7,2.9-8.7,4.8-13.5h3.5V104h-2.4V97.2z"/>
	<path class="st0" d="M119.4,99.3l-1.7,4.7h-2.4l5.8-16.5h3l6.1,16.5h-2.6l-1.7-4.7H119.4z M125.3,97.2c-1.5-4.2-2.4-6.5-2.7-7.7h0
		c-0.4,1.4-1.4,4.2-2.5,7.7H125.3z"/>
	<path class="st0" d="M141.4,99.4c0.5,1.9,1.8,2.9,4.1,2.9c2.4,0,3.4-1.1,3.4-2.6c0-1.6-0.8-2.5-4-3.2c-4-1-5.3-2.4-5.3-4.7
		c0-2.5,1.9-4.5,5.6-4.5c4,0,5.7,2.3,5.9,4.5h-2.5c-0.3-1.4-1.1-2.6-3.5-2.6c-1.9,0-3,0.8-3,2.3c0,1.5,0.9,2.1,3.7,2.8
		c4.7,1.1,5.6,3,5.6,5.1c0,2.7-2,4.8-6.1,4.8c-4.2,0-6-2.2-6.4-4.8H141.4z"/>
	<path class="st0" d="M163.2,99.4c0.5,1.9,1.8,2.9,4.1,2.9c2.4,0,3.4-1.1,3.4-2.6c0-1.6-0.8-2.5-4-3.2c-4-1-5.3-2.4-5.3-4.7
		c0-2.5,1.9-4.5,5.6-4.5c4,0,5.7,2.3,5.9,4.5h-2.5c-0.3-1.4-1.1-2.6-3.5-2.6c-1.9,0-3,0.8-3,2.3c0,1.5,0.9,2.1,3.7,2.8
		c4.7,1.1,5.6,3,5.6,5.1c0,2.7-2,4.8-6.1,4.8c-4.2,0-6-2.2-6.4-4.8H163.2z"/>
	<path class="st0" d="M186.1,99.3l-1.7,4.7H182l5.8-16.5h3L197,104h-2.6l-1.7-4.7H186.1z M192,97.2c-1.5-4.2-2.4-6.5-2.7-7.7h0
		c-0.4,1.4-1.4,4.2-2.5,7.7H192z"/>
	<path class="st0" d="M219.9,104h-1.9c-0.1-0.4-0.2-1-0.2-2.1c-0.8,1.2-2.2,2.4-5.1,2.4c-4.8,0-7.3-3.6-7.3-8.3
		c0-4.9,2.7-8.7,7.8-8.7c3.9,0,6.3,2.1,6.8,5.1h-2.4c-0.5-1.7-1.8-3-4.4-3c-3.8,0-5.2,3-5.2,6.5c0,3.3,1.4,6.4,5.1,6.4
		c3.6,0,4.4-2.4,4.4-4.9v-0.2h-4.4V95h6.8V104z"/>
	<polygon class="st0" points="241.5,96.4 233.4,96.4 233.4,102 242.3,102 242,104 231,104 231,87.5 241.9,87.5 241.9,89.6 
		233.4,89.6 233.4,94.4 241.5,94.4 	"/>
	<polygon class="st0" points="268.8,89.6 263.5,89.6 263.5,87.5 276.5,87.5 276.5,89.6 271.3,89.6 271.3,104 268.8,104 	"/>
	<polygon class="st0" points="286,87.5 288.4,87.5 288.4,94.3 296.6,94.3 296.6,87.5 299.1,87.5 299.1,104 296.6,104 296.6,96.4 
		288.4,96.4 288.4,104 286,104 	"/>
	<polygon class="st0" points="321.2,96.4 313,96.4 313,102 322,102 321.7,104 310.6,104 310.6,87.5 321.5,87.5 321.5,89.6 313,89.6 
		313,94.4 321.2,94.4 	"/>
	<path class="st0" d="M334.4,96.9v7.1H332V87.5h6.6c3.4,0,5.2,1.9,5.2,4.4c0,2.2-1.2,3.4-2.7,3.9c1.2,0.3,2.4,1.3,2.4,4.2v0.7
		c0,1.1,0,2.5,0.2,3.3h-2.4c-0.3-0.7-0.3-2-0.3-3.6v-0.3c0-2.3-0.6-3.3-3.5-3.3H334.4z M334.4,94.9h3.5c2.4,0,3.4-0.9,3.4-2.7
		c0-1.7-1.1-2.6-3.2-2.6h-3.7V94.9z"/>
	<path class="st0" d="M357.2,99.3l-1.7,4.7h-2.4l5.8-16.5h3l6.1,16.5h-2.6l-1.7-4.7H357.2z M363.1,97.2c-1.5-4.2-2.4-6.5-2.7-7.7h0
		c-0.4,1.4-1.4,4.2-2.5,7.7H363.1z"/>
	<path class="st0" d="M377.7,87.5h6.4c3.3,0,5.5,1.8,5.5,4.9c0,3.3-2.4,5-5.6,5h-3.8v6.7h-2.4V87.5z M380.1,95.3h3.6
		c2.1,0,3.3-1,3.3-2.9c0-1.9-1.4-2.9-3.2-2.9h-3.7V95.3z"/>
	<path class="st0" d="M403.8,104v-6c0-0.2,0-0.3-0.1-0.5l-5.8-10h2.8c1.4,2.7,3.7,6.7,4.5,8.2c0.7-1.5,3.1-5.6,4.6-8.2h2.6l-6,10.1
		c0,0.1-0.1,0.2-0.1,0.4v6H403.8z"/>
</g>
</svg>
